<svg width="20" height="20" viewBox="0 0 20 20" fill="none" xmlns="http://www.w3.org/2000/svg">
<g clip-path="url(#clip0_548_850)">
<path fill-rule="evenodd" clip-rule="evenodd" d="M14.9029 14.934H18.7443C19.4305 13.7356 19.8581 12.4082 20 11.0363L17.0018 8.74883L15.2879 9.30449L13.8448 13.484L14.9029 14.934ZM2.99818 8.74996L0.00572384 11.0363H0C0.142578 12.4084 0.571019 13.7358 1.25801 14.934H5.09941L6.15516 13.4852L4.71207 9.30561L2.99818 8.74996ZM1.77789 7.3954L1.14831 5.28181H1.13802C0.55907 6.35183 0.182614 7.51855 0.0274274 8.72382L1.77789 7.3954ZM6.5208 8.93748L7.83021 12.7272H12.1721L13.4815 8.93748L10.0011 6.55795L6.5208 8.93748ZM18.8654 5.28181L18.2358 7.3954L19.976 8.72382C19.8208 7.51855 19.4444 6.35183 18.8654 5.28181ZM16.4408 7.02041L17.5274 3.37497H17.5263C16.6097 2.34631 15.4909 1.51523 14.239 0.932929L10.9152 3.20566V4.97613L14.7189 7.57613L16.4408 7.02041ZM10.0011 1.62384L12.0658 0.212513C10.7041 -0.0708376 9.29818 -0.0708376 7.93647 0.212513L10.0011 1.62384ZM9.08707 3.20566L5.76326 0.932929C4.51136 1.51523 3.39262 2.34631 2.47601 3.37497L3.56263 7.02041L5.28451 7.57613L9.08707 4.97613V3.20566ZM4.91888 16.7522H2.59141C3.47958 17.7164 4.54848 18.4988 5.73812 19.0556L4.91888 16.7522ZM7.64168 14.5453L6.58707 15.9897L7.94447 19.7874H7.93876C9.29892 20.0709 10.7034 20.0709 12.0635 19.7874L13.4152 15.9897L12.3606 14.5453H7.64168ZM14.271 19.0524C15.46 18.4964 16.5285 17.7151 17.4166 16.7522H15.0891L14.271 19.0524Z" fill="#B7B2DC"/>
</g>
<defs>
<clipPath id="clip0_548_850">
<rect width="20" height="20" fill="white"/>
</clipPath>
</defs>
</svg>
