<svg width="24" height="24" viewBox="0 0 24 24" fill="none" xmlns="http://www.w3.org/2000/svg">
<path fill-rule="evenodd" clip-rule="evenodd" d="M17.8835 17.9208H22.4932C23.3166 16.4827 23.8298 14.8898 24 13.2435L20.4022 10.4986L18.3455 11.1654L16.6138 16.1808L17.8835 17.9208ZM3.59781 10.4999L0.00686861 13.2435H0C0.171094 14.89 0.685223 16.4829 1.50961 17.9208H6.11929L7.3862 16.1822L5.65448 11.1667L3.59781 10.4999ZM2.13346 8.87448L1.37797 6.33818H1.36563C0.670884 7.6222 0.219137 9.02226 0.0329129 10.4686L2.13346 8.87448ZM7.82496 10.725L9.39625 15.2727H14.6065L16.1778 10.725L12.0014 7.86954L7.82496 10.725ZM22.6385 6.33818L21.883 8.87448L23.9712 10.4686C23.785 9.02226 23.3333 7.6222 22.6385 6.33818ZM19.729 8.42449L21.0329 4.04996H21.0315C19.9316 2.81557 18.5891 1.81827 17.0869 1.11951L13.0983 3.84679V5.97136L17.6627 9.09135L19.729 8.42449ZM12.0014 1.9486L14.479 0.255015C12.8449 -0.0850051 11.1578 -0.0850051 9.52376 0.255015L12.0014 1.9486ZM10.9045 3.84679L6.91591 1.11951C5.41363 1.81827 4.07115 2.81557 2.97121 4.04996L4.27515 8.42449L6.34142 9.09135L10.9045 5.97136V3.84679ZM5.90265 20.1026H3.10969C4.17549 21.2596 5.45817 22.1985 6.88575 22.8667L5.90265 20.1026ZM9.17002 17.4544L7.90449 19.1876L9.53336 23.7449H9.52651C11.1587 24.085 12.8441 24.085 14.4762 23.7449L16.0983 19.1876L14.8327 17.4544H9.17002ZM17.1252 22.8629C18.552 22.1957 19.8341 21.2581 20.8999 20.1026H18.107L17.1252 22.8629Z" fill="#89F9FF"/>
</svg>
