<svg width="24" height="24" viewBox="0 0 24 24" fill="none" xmlns="http://www.w3.org/2000/svg">
<path fill-rule="evenodd" clip-rule="evenodd" d="M24 12.3606V21.2676C23.9999 21.6315 23.9095 21.9894 23.7374 22.3072C23.5653 22.625 23.3172 22.8922 23.0166 23.0834C22.716 23.2746 22.3729 23.3835 22.02 23.3997C21.667 23.4159 21.3159 23.339 21 23.1761C20.4531 22.8944 19.8436 22.7666 19.2333 22.8057C18.6231 22.8448 18.0336 23.0493 17.5248 23.3986C16.9548 23.7899 16.285 23.9988 15.6 23.9988C14.915 23.9988 14.2452 23.7899 13.6752 23.3986L13.2516 23.1093C12.8809 22.8549 12.4454 22.7192 12 22.7192C11.5546 22.7192 11.1191 22.8549 10.7484 23.1093L10.3248 23.3998C9.75478 23.7912 9.08505 24 8.4 24C7.71495 24 7.04523 23.7912 6.4752 23.3998C5.96623 23.0503 5.37659 22.8457 4.76607 22.8066C4.15555 22.7675 3.54586 22.8954 2.9988 23.1773C2.68274 23.34 2.33153 23.4167 1.97856 23.4003C1.62559 23.3838 1.28257 23.2746 0.982093 23.0831C0.681612 22.8917 0.433649 22.6242 0.261759 22.3063C0.0898704 21.9883 -0.000235952 21.6303 4.64025e-07 21.2664V12.3606C4.64025e-07 5.53383 5.3724 0 12 0C18.6276 0 24 5.53383 24 12.3606ZM8.9364 15.3246C8.84177 15.2488 8.73339 15.1932 8.61761 15.1611C8.50183 15.129 8.38099 15.121 8.26219 15.1377C8.14338 15.1544 8.02901 15.1953 7.92579 15.2582C7.82257 15.321 7.73257 15.4044 7.66109 15.5036C7.58962 15.6028 7.53809 15.7156 7.50955 15.8356C7.48101 15.9555 7.47602 16.0802 7.49489 16.2021C7.51375 16.3241 7.55609 16.4409 7.61941 16.5458C7.68272 16.6507 7.76575 16.7415 7.8636 16.8128C9.05793 17.7326 10.5088 18.2303 12 18.2318C13.4912 18.2303 14.9421 17.7326 16.1364 16.8128C16.2343 16.7415 16.3173 16.6507 16.3806 16.5458C16.4439 16.4409 16.4862 16.3241 16.5051 16.2021C16.524 16.0802 16.519 15.9555 16.4904 15.8356C16.4619 15.7156 16.4104 15.6028 16.3389 15.5036C16.2674 15.4044 16.1774 15.321 16.0742 15.2582C15.971 15.1953 15.8566 15.1544 15.7378 15.1377C15.619 15.121 15.4982 15.129 15.3824 15.1611C15.2666 15.1932 15.1582 15.2488 15.0636 15.3246C14.1794 16.0069 13.1048 16.3763 12 16.3778C10.8952 16.3763 9.82057 16.0069 8.9364 15.3246ZM16.8 9.27043C16.8 10.2939 16.2624 11.1245 15.6 11.1245C14.9376 11.1245 14.4 10.2939 14.4 9.27043C14.4 8.24697 14.9376 7.41634 15.6 7.41634C16.2624 7.41634 16.8 8.24697 16.8 9.27043ZM8.4 11.1245C9.0624 11.1245 9.6 10.2939 9.6 9.27043C9.6 8.24697 9.0624 7.41634 8.4 7.41634C7.7376 7.41634 7.2 8.24697 7.2 9.27043C7.2 10.2939 7.7376 11.1245 8.4 11.1245Z" fill="#89F9FF"/>
</svg>
