<svg width="21" height="20" viewBox="0 0 21 20" fill="none" xmlns="http://www.w3.org/2000/svg">
<g clip-path="url(#clip0_548_592)">
<path fill-rule="evenodd" clip-rule="evenodd" d="M20.5 10.3005V17.723C20.4999 18.0263 20.4246 18.3245 20.2812 18.5893C20.1377 18.8541 19.931 19.0768 19.6805 19.2362C19.43 19.3955 19.1441 19.4862 18.85 19.4998C18.5559 19.5133 18.2633 19.4491 18 19.3134C17.5442 19.0787 17.0364 18.9722 16.5278 19.0048C16.0192 19.0373 15.528 19.2078 15.104 19.4988C14.629 19.8249 14.0709 19.999 13.5 19.999C12.9291 19.999 12.371 19.8249 11.896 19.4988L11.543 19.2578C11.2341 19.0458 10.8712 18.9326 10.5 18.9326C10.1288 18.9326 9.76591 19.0458 9.457 19.2578L9.104 19.4998C8.62898 19.826 8.07087 20 7.5 20C6.92913 20 6.37102 19.826 5.896 19.4998C5.47186 19.2086 4.98049 19.038 4.47173 19.0055C3.96296 18.9729 3.45488 19.0795 2.999 19.3144C2.73561 19.45 2.44295 19.514 2.1488 19.5002C1.85466 19.4865 1.56881 19.3955 1.31841 19.236C1.06801 19.0764 0.861374 18.8535 0.718133 18.5885C0.574892 18.3236 0.499803 18.0253 0.5 17.722V10.3005C0.5 4.61152 4.977 0 10.5 0C16.023 0 20.5 4.61152 20.5 10.3005ZM7.947 12.7705C7.86815 12.7073 7.77782 12.661 7.68134 12.6342C7.58486 12.6075 7.48416 12.6009 7.38516 12.6147C7.28615 12.6286 7.19084 12.6628 7.10483 12.7151C7.01881 12.7675 6.94381 12.837 6.88425 12.9197C6.82468 13.0023 6.78174 13.0964 6.75796 13.1963C6.73417 13.2963 6.73002 13.4001 6.74574 13.5018C6.76146 13.6034 6.79674 13.7008 6.8495 13.7882C6.90227 13.8756 6.97146 13.9512 7.053 14.0107C8.04827 14.7772 9.25731 15.1919 10.5 15.1932C11.7427 15.1919 12.9517 14.7772 13.947 14.0107C14.0285 13.9512 14.0977 13.8756 14.1505 13.7882C14.2033 13.7008 14.2385 13.6034 14.2543 13.5018C14.27 13.4001 14.2658 13.2963 14.242 13.1963C14.2183 13.0964 14.1753 13.0023 14.1158 12.9197C14.0562 12.837 13.9812 12.7675 13.8952 12.7151C13.8092 12.6628 13.7138 12.6286 13.6148 12.6147C13.5158 12.6009 13.4151 12.6075 13.3187 12.6342C13.2222 12.661 13.1319 12.7073 13.053 12.7705C12.3162 13.3391 11.4206 13.6469 10.5 13.6481C9.57937 13.6469 8.6838 13.3391 7.947 12.7705ZM14.5 7.72536C14.5 8.57823 14.052 9.27043 13.5 9.27043C12.948 9.27043 12.5 8.57823 12.5 7.72536C12.5 6.87248 12.948 6.18028 13.5 6.18028C14.052 6.18028 14.5 6.87248 14.5 7.72536ZM7.5 9.27043C8.052 9.27043 8.5 8.57823 8.5 7.72536C8.5 6.87248 8.052 6.18028 7.5 6.18028C6.948 6.18028 6.5 6.87248 6.5 7.72536C6.5 8.57823 6.948 9.27043 7.5 9.27043Z" fill="#B7B2DC"/>
</g>
<defs>
<clipPath id="clip0_548_592">
<rect width="20" height="20" fill="white" transform="translate(0.5)"/>
</clipPath>
</defs>
</svg>
