<svg width="24" height="24" viewBox="0 0 24 24" fill="none" xmlns="http://www.w3.org/2000/svg">
<g clip-path="url(#clip0_598_3053)">
<path d="M7.00425 24.0004C6.47147 23.7018 6.45842 23.3651 6.57467 22.9145C6.9856 21.3247 7.36297 19.7268 7.76706 18.1352C7.81089 17.9865 7.81794 17.8293 7.7876 17.6772C7.75726 17.5252 7.69045 17.3829 7.59299 17.2628C5.93517 15.0221 4.28232 12.7785 2.63445 10.532C2.33107 10.1202 2.3236 9.89427 2.60274 9.46805C3.62064 7.92963 4.63937 6.39164 5.65893 4.85406C5.96231 4.39591 6.26632 4.31393 6.74688 4.55551C8.54105 5.4597 10.3354 6.36347 12.13 7.26683C12.7293 7.5685 12.8238 7.94779 12.457 8.51421C11.8907 9.39044 11.9423 9.33286 10.9432 9.32785C9.70982 9.32535 8.47661 9.32535 7.2436 9.32785C6.75745 9.32785 6.44785 9.5926 6.44225 10.0094C6.43666 10.4263 6.7531 10.7236 7.24298 10.7267C8.1351 10.7311 9.02721 10.7336 9.91622 10.7267C10.0909 10.7267 10.1723 10.7849 10.2476 10.9376C11.268 13.0034 12.2913 15.0674 13.3174 17.1294C13.4623 17.4217 13.6544 17.6339 14.0013 17.6383C14.1121 17.6408 14.2218 17.6159 14.3208 17.5658C14.4198 17.5157 14.5052 17.4419 14.5693 17.351C14.6335 17.26 14.6745 17.1546 14.6889 17.044C14.7032 16.9333 14.6904 16.8209 14.6516 16.7164C14.6241 16.6434 14.5919 16.5723 14.5552 16.5036L11.7719 10.8969C11.7514 10.8562 11.734 10.8137 11.6824 10.6998C11.9311 10.7411 12.1412 10.7355 12.3178 10.8131C14.337 11.7049 16.3587 12.5918 18.3618 13.5187C19.3291 13.9662 20.197 13.9375 21.0108 13.202C21.0263 13.2258 21.0481 13.2434 21.0474 13.2603C21.0375 14.0639 21.068 14.8706 21.0046 15.6699C20.9101 16.8591 20.3325 17.8079 19.3981 18.5358C19.2332 18.6656 19.0605 18.785 18.8809 18.8932C18.57 19.0753 18.4581 19.3426 18.46 19.6937C18.4675 20.8334 18.4519 21.9731 18.4681 23.1129C18.4743 23.5378 18.3357 23.8376 17.939 24.001L7.00425 24.0004Z" fill="#89F9FF"/>
<path d="M16.8685 4.93555C17.0028 4.98875 17.1477 5.02442 17.2689 5.0989C17.6332 5.32234 17.9901 5.55705 18.345 5.79425C18.7473 6.06276 18.8281 6.45831 18.5601 6.86514C17.8017 8.01592 17.0407 9.16504 16.2773 10.3125C16.0168 10.7037 15.7066 10.7882 15.2733 10.5966C14.8903 10.4276 14.5084 10.2564 14.1275 10.0828C13.6669 9.87186 13.527 9.42186 13.8036 9.00064C14.6164 7.76515 15.4329 6.53196 16.2531 5.30106C16.32 5.19578 16.4105 5.10783 16.5175 5.04433C16.6244 4.98083 16.7447 4.94356 16.8685 4.93555Z" fill="#89F9FF"/>
<path d="M19.395 12.4259C18.8977 12.1937 18.2511 12.0253 17.7258 11.6172C17.4771 11.4232 17.4591 11.0633 17.6419 10.7829C18.3539 9.69557 19.0722 8.6128 19.7966 7.53462C20.0105 7.21792 20.3972 7.14845 20.7248 7.34998C21.1276 7.60034 21.5243 7.85841 21.9147 8.1242C21.9907 8.17277 22.0562 8.23627 22.1073 8.31092C22.1584 8.38556 22.194 8.46981 22.212 8.55862C22.2299 8.64743 22.23 8.73898 22.212 8.8278C22.194 8.91662 22.1585 9.00088 22.1074 9.07554C21.4404 10.0989 20.7615 11.1147 20.0832 12.1305C19.9489 12.3307 19.7494 12.4265 19.395 12.4259Z" fill="#89F9FF"/>
<path d="M9.6875 4.47476L6.85449 3.05025C7.47058 2.12207 8.06802 1.21142 8.67789 0.308901C8.72544 0.23437 8.78716 0.170038 8.85949 0.119601C8.93182 0.0691641 9.01335 0.0336177 9.09937 0.0150055C9.18539 -0.00360666 9.27422 -0.00491824 9.36075 0.0111472C9.44728 0.0272127 9.5298 0.0603377 9.60357 0.108618C10.1113 0.42281 10.6122 0.748685 11.1062 1.08624C11.1803 1.13407 11.2442 1.19617 11.2944 1.26896C11.3445 1.34176 11.3799 1.42382 11.3985 1.51043C11.417 1.59704 11.4184 1.68649 11.4024 1.77362C11.3865 1.86076 11.3537 1.94387 11.3057 2.01818C10.7804 2.83558 10.2377 3.64171 9.6875 4.47476Z" fill="#89F9FF"/>
<path d="M10.9395 5.1038L11.5158 4.23258C11.8266 3.76567 12.1318 3.29751 12.4445 2.83374C12.6932 2.46384 13.083 2.37559 13.4542 2.61092C13.9324 2.91385 14.4068 3.22262 14.8772 3.53723C15.2284 3.77318 15.3124 4.18439 15.0842 4.53863C14.6577 5.19706 14.2195 5.84798 13.77 6.5258L10.9395 5.1038Z" fill="#89F9FF"/>
</g>
<defs>
<clipPath id="clip0_598_3053">
<rect width="24" height="24" fill="white"/>
</clipPath>
</defs>
</svg>
