<svg width="20" height="20" viewBox="0 0 20 20" fill="none" xmlns="http://www.w3.org/2000/svg">
<g clip-path="url(#clip0_548_777)">
<path d="M5.83696 20.0001C5.39297 19.7513 5.3821 19.4707 5.47898 19.0952C5.82142 17.7704 6.13589 16.4389 6.47263 15.1125C6.50916 14.9886 6.51503 14.8576 6.48975 14.7309C6.46447 14.6042 6.40879 14.4856 6.32757 14.3855C4.94605 12.5183 3.56868 10.6486 2.19545 8.77654C1.94264 8.43335 1.93642 8.24506 2.16903 7.88988C3.01728 6.60787 3.86623 5.3262 4.71586 4.04489C4.96868 3.6631 5.22201 3.59477 5.62248 3.7961C7.11763 4.54959 8.61295 5.30273 10.1084 6.05553C10.6079 6.30692 10.6866 6.62299 10.3809 7.09501C9.90898 7.8252 9.95198 7.77722 9.11944 7.77305C8.09159 7.77096 7.06392 7.77096 6.03642 7.77305C5.63129 7.77305 5.37329 7.99367 5.36863 8.34103C5.36396 8.6884 5.62766 8.93614 6.0359 8.93875C6.77933 8.9424 7.52276 8.94449 8.2636 8.93875C8.40917 8.93875 8.47704 8.98725 8.53972 9.11452C9.39005 10.836 10.2428 12.556 11.0979 14.2744C11.2187 14.5179 11.3787 14.6948 11.6678 14.6984C11.7602 14.7005 11.8516 14.6797 11.9341 14.638C12.0166 14.5962 12.0877 14.5348 12.1412 14.459C12.1947 14.3832 12.2289 14.2953 12.2408 14.2031C12.2528 14.111 12.2421 14.0172 12.2097 13.9301C12.1868 13.8693 12.16 13.8101 12.1294 13.7528L9.81003 9.08061C9.79293 9.04671 9.77843 9.01125 9.73543 8.91632C9.94266 8.95075 10.1178 8.94605 10.2649 9.01073C11.9476 9.75396 13.6323 10.493 15.3016 11.2655C16.1077 11.6384 16.8309 11.6144 17.5091 11.0015C17.522 11.0214 17.5401 11.036 17.5396 11.0501C17.5313 11.7197 17.5567 12.392 17.5039 13.0581C17.4251 14.0491 16.9438 14.8398 16.1652 15.4463C16.0278 15.5545 15.8838 15.654 15.7342 15.7442C15.4751 15.8959 15.3819 16.1186 15.3834 16.4112C15.3896 17.361 15.3767 18.3108 15.3902 19.2606C15.3953 19.6147 15.2798 19.8645 14.9493 20.0007L5.83696 20.0001Z" fill="#B7B2DC"/>
<path d="M14.0572 4.11328C14.1691 4.15761 14.2898 4.18734 14.3908 4.24941C14.6944 4.43561 14.9918 4.6312 15.2876 4.82887C15.6228 5.05262 15.6901 5.38225 15.4668 5.72127C14.8348 6.68026 14.2007 7.63786 13.5645 8.59406C13.3474 8.92004 13.0889 8.99045 12.7278 8.83085C12.4087 8.69003 12.0904 8.54729 11.773 8.40265C11.3891 8.22688 11.2725 7.85187 11.5031 7.50086C12.1804 6.47129 12.8608 5.44362 13.5443 4.41788C13.6 4.33014 13.6755 4.25685 13.7646 4.20393C13.8537 4.15101 13.9539 4.11996 14.0572 4.11328Z" fill="#B7B2DC"/>
<path d="M16.1626 10.3549C15.7481 10.1614 15.2093 10.0211 14.7715 9.68103C14.5643 9.51934 14.5493 9.21944 14.7016 8.98578C15.295 8.07964 15.8935 7.17734 16.4972 6.27885C16.6754 6.01494 16.9977 5.95704 17.2707 6.12499C17.6064 6.33361 17.9369 6.54867 18.2623 6.77016C18.3256 6.81064 18.3802 6.86356 18.4228 6.92576C18.4653 6.98797 18.495 7.05817 18.51 7.13218C18.525 7.20619 18.525 7.28248 18.51 7.3565C18.4951 7.43051 18.4654 7.50073 18.4229 7.56295C17.867 8.41571 17.3013 9.26221 16.7361 10.1087C16.6242 10.2756 16.4579 10.3554 16.1626 10.3549Z" fill="#B7B2DC"/>
<path d="M8.073 3.72897L5.71216 2.54188C6.22556 1.7684 6.72343 1.00952 7.23165 0.257417C7.27128 0.195309 7.32271 0.141698 7.38299 0.0996674C7.44327 0.0576367 7.5112 0.0280147 7.58289 0.0125046C7.65458 -0.00300555 7.7286 -0.00409853 7.80071 0.00928936C7.87282 0.0226772 7.94158 0.0502814 8.00306 0.0905152C8.42615 0.352342 8.84354 0.623904 9.25523 0.905202C9.31697 0.945057 9.37027 0.996805 9.41206 1.05747C9.45386 1.11814 9.48334 1.18652 9.49879 1.25869C9.51425 1.33087 9.51538 1.40541 9.50212 1.47802C9.48886 1.55063 9.46147 1.61989 9.42153 1.68182C8.98376 2.36298 8.53149 3.03476 8.073 3.72897Z" fill="#B7B2DC"/>
<path d="M9.11633 4.2535L9.59658 3.52747C9.85562 3.13839 10.11 2.74825 10.3706 2.36177C10.5778 2.05353 10.9026 1.97998 11.2119 2.17609C11.6105 2.42853 12.0058 2.68584 12.3978 2.94801C12.6905 3.14464 12.7604 3.48731 12.5703 3.78252C12.2149 4.33121 11.8497 4.87364 11.4751 5.4385L9.11633 4.2535Z" fill="#B7B2DC"/>
</g>
<defs>
<clipPath id="clip0_548_777">
<rect width="20" height="20" fill="white"/>
</clipPath>
</defs>
</svg>
