<svg width="18" height="18" viewBox="0 0 18 18" fill="none" xmlns="http://www.w3.org/2000/svg">
<path d="M16.2001 9.09035C16.2001 8.19035 15.4801 7.47035 14.5801 7.56035C14.2201 7.56035 13.7701 7.74035 13.5001 8.01035C12.2401 7.20035 10.8001 6.66035 9.27009 6.66035L9.99009 3.24035L12.3301 3.78035C12.3301 4.41035 12.8701 4.86035 13.5001 4.86035C14.1301 4.86035 14.5801 4.32035 14.5801 3.69035C14.5801 3.06035 14.0401 2.61035 13.4101 2.61035C12.9601 2.61035 12.6001 2.88035 12.4201 3.24035L9.90009 2.61035H9.72009C9.63009 2.61035 9.63009 2.70035 9.63009 2.79035L8.73009 6.66035C7.20009 6.66035 5.76009 7.11035 4.50009 8.01035C3.87009 7.38035 2.88009 7.38035 2.25009 8.01035C1.62009 8.64035 1.62009 9.63035 2.25009 10.2604C2.34009 10.3504 2.52009 10.5304 2.70009 10.5304V10.9804C2.70009 13.4104 5.49009 15.3904 9.00009 15.3904C12.5101 15.3904 15.3001 13.4104 15.3001 10.9804V10.5304C15.8401 10.2604 16.2001 9.72035 16.2001 9.09035ZM5.40009 10.2604C5.40009 9.63035 5.94009 9.18035 6.48009 9.18035C7.11009 9.18035 7.56009 9.72035 7.56009 10.2604C7.56009 10.8004 7.02009 11.3404 6.48009 11.3404C5.85009 11.3404 5.40009 10.8904 5.40009 10.2604ZM11.7001 13.2304C10.8901 13.7704 9.99009 14.1304 9.00009 14.0404C8.01009 14.0404 7.11009 13.7704 6.30009 13.2304C6.21009 13.1404 6.21009 12.9604 6.30009 12.7804C6.39009 12.6904 6.57009 12.6904 6.66009 12.7804C7.29009 13.2304 8.10009 13.5004 8.91009 13.4104C9.72009 13.5004 10.5301 13.2304 11.1601 12.7804C11.2501 12.6904 11.4301 12.6904 11.6101 12.7804C11.7901 12.8704 11.7901 13.0504 11.7001 13.2304ZM11.4301 11.3404C10.8001 11.3404 10.3501 10.8004 10.3501 10.2604C10.3501 9.72035 10.8901 9.18035 11.4301 9.18035C12.0601 9.18035 12.5101 9.72035 12.5101 10.2604C12.6001 10.8904 12.0601 11.3404 11.4301 11.3404Z" fill="#676581"/>
</svg>
