<svg width="40" height="40" viewBox="0 0 40 40" fill="none" xmlns="http://www.w3.org/2000/svg">
<path d="M6.25 17.5004C5.91848 17.5004 5.60054 17.3687 5.36612 17.1343C5.1317 16.8999 5 16.582 5 16.2504V6.25293C5 5.92141 5.1317 5.60347 5.36612 5.36905C5.60054 5.13463 5.91848 5.00293 6.25 5.00293H16.25C16.5815 5.00293 16.8995 5.13463 17.1339 5.36905C17.3683 5.60347 17.5 5.92141 17.5 6.25293V16.2504C17.5 16.582 17.3683 16.8999 17.1339 17.1343C16.8995 17.3687 16.5815 17.5004 16.25 17.5004H6.25ZM23.75 17.5004C23.4185 17.5004 23.1005 17.3687 22.8661 17.1343C22.6317 16.8999 22.5 16.582 22.5 16.2504V6.25293C22.5 5.92141 22.6317 5.60347 22.8661 5.36905C23.1005 5.13463 23.4185 5.00293 23.75 5.00293H33.7475C34.079 5.00293 34.397 5.13463 34.6314 5.36905C34.8658 5.60347 34.9975 5.92141 34.9975 6.25293V16.2504C34.9975 16.582 34.8658 16.8999 34.6314 17.1343C34.397 17.3687 34.079 17.5004 33.7475 17.5004H23.75ZM6.25 35.0004C5.91848 35.0004 5.60054 34.8687 5.36612 34.6343C5.1317 34.3999 5 34.082 5 33.7504V23.7504C5 23.4189 5.1317 23.101 5.36612 22.8665C5.60054 22.6321 5.91848 22.5004 6.25 22.5004H16.25C16.5815 22.5004 16.8995 22.6321 17.1339 22.8665C17.3683 23.101 17.5 23.4189 17.5 23.7504V33.7504C17.5 34.082 17.3683 34.3999 17.1339 34.6343C16.8995 34.8687 16.5815 35.0004 16.25 35.0004H6.25ZM23.75 35.0004C23.4185 35.0004 23.1005 34.8687 22.8661 34.6343C22.6317 34.3999 22.5 34.082 22.5 33.7504V23.7504C22.5 23.4189 22.6317 23.101 22.8661 22.8665C23.1005 22.6321 23.4185 22.5004 23.75 22.5004H33.7475C34.079 22.5004 34.397 22.6321 34.6314 22.8665C34.8658 23.101 34.9975 23.4189 34.9975 23.7504V33.7504C34.9975 34.082 34.8658 34.3999 34.6314 34.6343C34.397 34.8687 34.079 35.0004 33.7475 35.0004H23.75Z" fill="#84819A"/>
</svg>
