<svg width="14" height="14" viewBox="0 0 14 14" fill="none" xmlns="http://www.w3.org/2000/svg">
<path d="M12.8447 3.78027C13.2184 4.15397 13.5033 4.5778 13.6992 5.05176C13.8952 5.52572 13.9954 6.0293 14 6.5625C14 6.72201 13.9954 6.91341 13.9863 7.13672C13.9772 7.36003 13.959 7.60156 13.9316 7.86133C13.9043 8.12109 13.861 8.3877 13.8018 8.66113C13.7425 8.93457 13.6673 9.20573 13.5762 9.47461C13.4395 9.86654 13.2799 10.1855 13.0977 10.4316C12.9154 10.6777 12.7262 10.8714 12.5303 11.0127C12.3343 11.154 12.1361 11.2497 11.9355 11.2998C11.735 11.3499 11.5482 11.375 11.375 11.375C11.2246 11.375 11.0879 11.3499 10.9648 11.2998C10.8418 11.2497 10.7233 11.1813 10.6094 11.0947C10.4954 11.0081 10.3906 10.9147 10.2949 10.8145C10.1992 10.7142 10.1012 10.6048 10.001 10.4863C9.90527 10.377 9.81185 10.2721 9.7207 10.1719C9.62956 10.0716 9.53158 9.98275 9.42676 9.90527C9.32194 9.8278 9.21712 9.76172 9.1123 9.70703C9.00749 9.65234 8.88444 9.625 8.74316 9.625H5.25684C5.12467 9.62956 5.00391 9.6569 4.89453 9.70703C4.78516 9.75716 4.67806 9.82096 4.57324 9.89844C4.46842 9.97591 4.37272 10.0671 4.28613 10.1719C4.19954 10.2767 4.10384 10.3815 3.99902 10.4863C3.90332 10.5957 3.80762 10.7028 3.71191 10.8076C3.61621 10.9124 3.51139 11.0081 3.39746 11.0947C3.28353 11.1813 3.16504 11.2474 3.04199 11.293C2.91895 11.3385 2.77995 11.3659 2.625 11.375C2.45182 11.375 2.26497 11.3499 2.06445 11.2998C1.86393 11.2497 1.66569 11.1562 1.46973 11.0195C1.27376 10.8828 1.08464 10.6891 0.902344 10.4385C0.720052 10.1878 0.560547 9.86654 0.423828 9.47461C0.332682 9.21029 0.259766 8.94141 0.205078 8.66797C0.150391 8.39453 0.107096 8.12565 0.0751953 7.86133C0.0432943 7.59701 0.0227865 7.35547 0.0136719 7.13672C0.00455729 6.91797 0 6.72656 0 6.5625C0 6.03385 0.0979818 5.53255 0.293945 5.05859C0.489909 4.58464 0.777018 4.15853 1.15527 3.78027C1.52441 3.40658 1.94824 3.12174 2.42676 2.92578C2.90527 2.72982 3.40885 2.62956 3.9375 2.625H10.0625C10.5911 2.625 11.0924 2.72298 11.5664 2.91895C12.0404 3.11491 12.4665 3.40202 12.8447 3.78027ZM12.749 9.1875C12.8356 8.94596 12.904 8.69531 12.9541 8.43555C13.0042 8.17578 13.0407 7.92741 13.0635 7.69043C13.0863 7.45345 13.1022 7.2347 13.1113 7.03418C13.1204 6.83366 13.125 6.67643 13.125 6.5625C13.125 6.13867 13.0452 5.74219 12.8857 5.37305C12.7262 5.00391 12.5075 4.68034 12.2295 4.40234C11.9515 4.12435 11.6279 3.9056 11.2588 3.74609C10.8896 3.58659 10.4909 3.50456 10.0625 3.5H3.9375C3.51367 3.5 3.11719 3.57975 2.74805 3.73926C2.37891 3.89876 2.05534 4.11751 1.77734 4.39551C1.49935 4.6735 1.2806 4.99707 1.12109 5.36621C0.961589 5.73535 0.879557 6.13411 0.875 6.5625C0.875 6.68099 0.877279 6.83822 0.881836 7.03418C0.886393 7.23014 0.902344 7.44661 0.929688 7.68359C0.957031 7.92057 0.995768 8.17122 1.0459 8.43555C1.09603 8.69987 1.16439 8.95052 1.25098 9.1875C1.36491 9.51562 1.49023 9.76855 1.62695 9.94629C1.76367 10.124 1.89583 10.2539 2.02344 10.3359C2.15104 10.418 2.26953 10.4658 2.37891 10.4795C2.48828 10.4932 2.57031 10.5 2.625 10.5C2.72526 10.5 2.83464 10.4408 2.95312 10.3223C3.07161 10.2038 3.19922 10.0671 3.33594 9.91211C3.44531 9.78451 3.56152 9.65462 3.68457 9.52246C3.80762 9.3903 3.94661 9.26725 4.10156 9.15332C4.25651 9.03939 4.42741 8.94596 4.61426 8.87305C4.80111 8.80013 5.00846 8.75911 5.23633 8.75H8.76367C8.99154 8.75911 9.19889 8.80013 9.38574 8.87305C9.57259 8.94596 9.74121 9.03711 9.8916 9.14648C10.042 9.25586 10.181 9.37891 10.3086 9.51562C10.4362 9.65234 10.5547 9.78451 10.6641 9.91211C10.7962 10.0625 10.9215 10.1969 11.04 10.3154C11.1585 10.4339 11.2702 10.4954 11.375 10.5C11.4297 10.5 11.5094 10.4932 11.6143 10.4795C11.7191 10.4658 11.8376 10.418 11.9697 10.3359C12.1019 10.2539 12.2363 10.124 12.373 9.94629C12.5098 9.76855 12.6351 9.51562 12.749 9.1875ZM3.5 6.125H4.375V7H3.5V7.875H2.625V7H1.75V6.125H2.625V5.25H3.5V6.125ZM11.375 7C11.498 7 11.612 7.02279 11.7168 7.06836C11.8216 7.11393 11.9128 7.17546 11.9902 7.25293C12.0677 7.3304 12.1315 7.42383 12.1816 7.5332C12.2318 7.64258 12.2546 7.75651 12.25 7.875C12.25 7.99805 12.2272 8.11198 12.1816 8.2168C12.1361 8.32161 12.0745 8.41276 11.9971 8.49023C11.9196 8.56771 11.8262 8.63151 11.7168 8.68164C11.6074 8.73177 11.4935 8.75456 11.375 8.75C11.252 8.75 11.138 8.72721 11.0332 8.68164C10.9284 8.63607 10.8372 8.57454 10.7598 8.49707C10.6823 8.4196 10.6185 8.32617 10.5684 8.2168C10.5182 8.10742 10.4954 7.99349 10.5 7.875C10.5 7.75195 10.5228 7.63802 10.5684 7.5332C10.6139 7.42839 10.6755 7.33724 10.7529 7.25977C10.8304 7.18229 10.9238 7.11849 11.0332 7.06836C11.1426 7.01823 11.2565 6.99544 11.375 7ZM9.625 5.25C9.74805 5.25 9.86198 5.27279 9.9668 5.31836C10.0716 5.36393 10.1628 5.42546 10.2402 5.50293C10.3177 5.5804 10.3815 5.67383 10.4316 5.7832C10.4818 5.89258 10.5046 6.00651 10.5 6.125C10.5 6.24805 10.4772 6.36198 10.4316 6.4668C10.3861 6.57161 10.3245 6.66276 10.2471 6.74023C10.1696 6.81771 10.0762 6.88151 9.9668 6.93164C9.85742 6.98177 9.74349 7.00456 9.625 7C9.50195 7 9.38802 6.97721 9.2832 6.93164C9.17839 6.88607 9.08724 6.82454 9.00977 6.74707C8.93229 6.6696 8.86849 6.57617 8.81836 6.4668C8.76823 6.35742 8.74544 6.24349 8.75 6.125C8.75 6.00195 8.77279 5.88802 8.81836 5.7832C8.86393 5.67839 8.92546 5.58724 9.00293 5.50977C9.0804 5.43229 9.17383 5.36849 9.2832 5.31836C9.39258 5.26823 9.50651 5.24544 9.625 5.25Z" fill="#B595FC"/>
</svg>
