<svg width="14" height="14" viewBox="0 0 14 14" fill="none" xmlns="http://www.w3.org/2000/svg">
<path d="M12.4753 6.85214L11.8363 5.73496L11.8923 5.70288C12.1444 5.55857 12.2319 5.23731 12.0877 4.98518L11.4488 3.86818L11.5711 3.79817C11.8232 3.65388 11.9106 3.3325 11.7663 3.08034L10.8659 1.50678C10.7967 1.38565 10.6824 1.29701 10.5475 1.26045C10.4129 1.22378 10.2692 1.24219 10.1481 1.31145L10.0257 1.38154L9.38666 0.264831C9.24245 0.0127945 8.92105 -0.0747452 8.66888 0.0695124L6.83729 1.11733L6.5842 0.793831C6.49318 0.677509 6.3574 0.604756 6.21018 0.593502C6.0629 0.582222 5.91765 0.63333 5.80995 0.734361L3.04395 3.32991C2.91316 3.45265 2.85397 3.63344 2.88669 3.80974L3.76676 8.54097L2.07748 11.2996C1.92578 11.5474 2.00369 11.8712 2.25141 12.023C2.27188 12.0355 2.29285 12.0465 2.31422 12.0559C2.55149 12.1607 2.83551 12.0764 2.97473 11.8491L4.76945 8.91811C4.83737 8.8072 4.86181 8.67503 4.83798 8.54725L3.97369 3.90026L6.11026 1.8954L8.17226 4.53096L7.62722 4.84286L6.98801 3.72579C6.84373 3.47364 6.5224 3.38612 6.27022 3.53047C6.01806 3.67476 5.93061 3.99611 6.0749 4.24827L6.97537 5.82196C6.9753 5.82193 6.97533 5.82202 6.97537 5.82196L7.87537 7.39528C7.87534 7.39521 7.87541 7.39534 7.87537 7.39528L8.77612 8.96895C8.83409 9.0703 8.92059 9.14489 9.01979 9.18866C9.09935 9.2238 9.18709 9.23826 9.2747 9.23126L8.97189 9.74096L7.60638 10.3349C7.47626 10.3916 7.37445 10.4984 7.3242 10.6311L6.31881 13.2877C6.21939 13.5504 6.34397 13.8428 6.59788 13.9549C6.60668 13.9588 6.61548 13.9624 6.62457 13.9658C6.89635 14.0686 7.19999 13.9317 7.30278 13.66L8.22964 11.2111L9.54722 10.6379C9.64838 10.5939 9.73324 10.5191 9.78971 10.4243L11.0763 8.25863L12.28 7.56984C12.5321 7.42557 12.6196 7.10424 12.4753 6.85214ZM8.7347 1.24389L9.1125 1.90405L7.96616 2.56015L7.49237 1.95467L8.7347 1.24389ZM8.62125 3.39742L10.2142 2.48589L10.592 3.14631L9.09497 4.00296L8.62125 3.39742ZM9.28799 5.10474L9.40197 5.03952L10.5357 4.39075L10.9134 5.05101L10.8607 5.08114C10.8596 5.08176 10.8583 5.08229 10.8572 5.08294L8.52742 6.4163L8.14969 5.75605L9.28799 5.10474ZM9.42788 7.98978L9.04995 7.32952L10.9232 6.2575L11.301 6.91789L10.4255 7.4189L9.42788 7.98978Z" fill="#6497FA"/>
</svg>
