<svg width="14" height="14" viewBox="0 0 14 14" fill="none" xmlns="http://www.w3.org/2000/svg">
<path d="M6.98886 13.9991C5.34057 13.9991 3.69228 14.0021 2.04398 13.9991C1.04828 13.9962 0.257772 13.4606 0.0559404 12.6424C-0.0617948 12.1656 0.0223021 11.6948 0.16022 11.2298C0.70853 9.36697 2.57211 8.0721 4.76871 8.04562C6.27571 8.02796 7.78609 8.02502 9.2931 8.04562C11.7184 8.07799 13.7435 9.74072 13.979 11.8508C14.0395 12.3805 13.9857 12.8807 13.5988 13.3163C13.2255 13.74 12.731 13.9873 12.1154 13.9932C10.4065 14.005 8.69434 13.9962 6.98549 13.9962C6.98886 13.9962 6.98886 13.9962 6.98886 13.9991ZM7.00904 13.0544C8.66406 13.0544 10.3157 13.0544 11.9707 13.0544C12.5628 13.0544 12.9429 12.7219 12.9227 12.204C12.916 11.9949 12.8891 11.7831 12.8386 11.5771C12.4484 10.0468 10.9818 8.99617 9.18882 8.98146C7.73227 8.96674 6.27571 8.97851 4.8158 8.98146C4.64761 8.98146 4.47941 8.99617 4.31459 9.01382C2.55192 9.21101 1.1492 10.5794 1.08192 12.1392C1.05837 12.6925 1.48558 13.0691 2.10117 13.0632C3.736 13.0426 5.37083 13.0544 7.00904 13.0544Z" fill="#EE6DB0"/>
<path d="M2.875 3.60506C2.87836 1.61274 4.73857 -0.00879228 7.01255 3.58774e-05C9.28988 0.00886403 11.1299 1.61568 11.1333 3.60212C11.1366 5.59152 9.28315 7.21599 7.00582 7.21599C4.72849 7.21892 2.875 5.59446 2.875 3.60506ZM6.99909 0.941764C5.31716 0.944703 3.95144 2.14245 3.95479 3.61095C3.95815 5.07945 5.32725 6.2772 7.00582 6.2772C8.6911 6.2772 10.0669 5.07356 10.0602 3.59919C10.0501 2.12774 8.68102 0.938813 6.99909 0.941764Z" fill="#EE6DB0"/>
</svg>
