<svg width="40" height="40" viewBox="0 0 40 40" fill="none" xmlns="http://www.w3.org/2000/svg">
<path d="M20.26 13L14.12 27H12.14L5.98 13H8.14L13.18 24.5L18.26 13H20.26Z" fill="#4E28F5"/>
<path d="M26.4183 27.16C25.3649 27.16 24.3449 27 23.3583 26.68C22.3849 26.3467 21.6183 25.92 21.0583 25.4L21.7983 23.84C22.3316 24.32 23.0116 24.7133 23.8383 25.02C24.6783 25.3133 25.5383 25.46 26.4183 25.46C27.5783 25.46 28.4449 25.2667 29.0183 24.88C29.5916 24.48 29.8783 23.9533 29.8783 23.3C29.8783 22.82 29.7183 22.4333 29.3983 22.14C29.0916 21.8333 28.7049 21.6 28.2383 21.44C27.7849 21.28 27.1383 21.1 26.2983 20.9C25.2449 20.6467 24.3916 20.3933 23.7383 20.14C23.0983 19.8867 22.5449 19.5 22.0783 18.98C21.6249 18.4467 21.3983 17.7333 21.3983 16.84C21.3983 16.0933 21.5916 15.42 21.9783 14.82C22.3783 14.22 22.9783 13.74 23.7783 13.38C24.5783 13.02 25.5716 12.84 26.7583 12.84C27.5849 12.84 28.3983 12.9467 29.1983 13.16C29.9983 13.3733 30.6849 13.68 31.2583 14.08L30.5983 15.68C30.0116 15.3067 29.3849 15.0267 28.7183 14.84C28.0516 14.64 27.3983 14.54 26.7583 14.54C25.6249 14.54 24.7716 14.7467 24.1983 15.16C23.6383 15.5733 23.3583 16.1067 23.3583 16.76C23.3583 17.24 23.5183 17.6333 23.8383 17.94C24.1583 18.2333 24.5516 18.4667 25.0183 18.64C25.4983 18.8 26.1449 18.9733 26.9583 19.16C28.0116 19.4133 28.8583 19.6667 29.4983 19.92C30.1383 20.1733 30.6849 20.56 31.1383 21.08C31.6049 21.6 31.8383 22.3 31.8383 23.18C31.8383 23.9133 31.6383 24.5867 31.2383 25.2C30.8383 25.8 30.2316 26.28 29.4183 26.64C28.6049 26.9867 27.6049 27.16 26.4183 27.16Z" fill="#BD4BA3"/>
<path fill-rule="evenodd" clip-rule="evenodd" d="M26 36.9758C24.1233 37.6391 22.1038 38 20 38C10.0589 38 2 29.9411 2 20C2 10.0589 10.0589 2 20 2C29.9411 2 38 10.0589 38 20C38 22.1038 37.6391 24.1233 36.9758 26H39.0844C39.6793 24.1059 40 22.0904 40 20C40 8.9543 31.0457 0 20 0C8.9543 0 0 8.9543 0 20C0 31.0457 8.9543 40 20 40C22.0904 40 24.1059 39.6793 26 39.0844V36.9758Z" fill="url(#paint0_linear_782_3117)"/>
<defs>
<linearGradient id="paint0_linear_782_3117" x1="20" y1="0" x2="20" y2="40" gradientUnits="userSpaceOnUse">
<stop stop-color="#4E28F5"/>
<stop offset="1" stop-color="#BD4BA3"/>
</linearGradient>
</defs>
</svg>
