<svg width="23" height="22" viewBox="0 0 23 22" fill="none" xmlns="http://www.w3.org/2000/svg">
<g clip-path="url(#clip0_606_4193)">
<path fill-rule="evenodd" clip-rule="evenodd" d="M16.2084 3.66699C16.9078 3.66699 17.4862 4.06483 17.9097 4.48283C18.3506 4.91641 18.7549 5.49941 19.1142 6.14199C19.8356 7.43083 20.4635 9.11474 20.8788 10.7785C21.2913 12.4294 21.5195 14.1537 21.3738 15.5094C21.2271 16.8707 20.5259 18.3337 18.9584 18.3337C17.6054 18.3337 16.5274 17.637 15.6455 16.9302L15.3238 16.6653L14.8728 16.2849L14.4658 15.9476C13.5317 15.1913 12.7021 14.667 11.625 14.667C10.5479 14.667 9.71837 15.1913 8.78428 15.9476L8.37728 16.2849L7.92628 16.6653L7.60545 16.9302C6.72178 17.637 5.64378 18.3337 4.2917 18.3337C2.72328 18.3337 2.02203 16.8707 1.87628 15.5094C1.73145 14.1527 1.95878 12.4294 2.37128 10.7776C2.78653 9.11474 3.41445 7.43174 4.13587 6.14108C4.4952 5.49941 4.89945 4.91641 5.34037 4.48191C5.76387 4.06483 6.34228 3.66699 7.0417 3.66699C7.51378 3.66699 7.97487 3.77974 8.42862 3.91449L8.97128 4.08041C9.06203 4.10791 9.15187 4.13541 9.2417 4.16016C10.0346 4.38749 10.8459 4.58366 11.625 4.58366C12.4042 4.58366 13.2154 4.38749 14.0084 4.16016L14.8196 3.91541C15.2761 3.78066 15.7409 3.66699 16.2084 3.66699ZM16.2084 5.50033C15.8573 5.50033 15.4906 5.60666 15.1349 5.72308L14.7151 5.86149C14.6479 5.88334 14.5804 5.90412 14.5125 5.92383C13.7013 6.15483 12.6792 6.41699 11.625 6.41699C10.5709 6.41699 9.54878 6.15483 8.73753 5.92383L8.53587 5.86149L8.11512 5.72308C7.75945 5.60574 7.39278 5.50033 7.0417 5.50033C6.65853 5.57183 6.31478 6.03658 6.05537 6.46741L5.91053 6.71949L5.73637 7.03666C5.1112 8.15316 4.53553 9.67666 4.15053 11.2222C3.78845 12.6677 3.61245 14.0519 3.67937 15.0822L3.7032 15.3508L3.72153 15.5122L3.74903 15.7028C3.81228 16.0704 3.94887 16.5003 4.2917 16.5003C5.03603 16.5003 5.65753 16.13 6.43028 15.5158L6.7997 15.2152L7.49637 14.6322L7.8117 14.3755C8.78703 13.6027 10.0071 12.8337 11.625 12.8337C13.2429 12.8337 14.463 13.6037 15.4384 14.3755L15.7546 14.6322L16.4513 15.2152L16.8198 15.5158C17.5925 16.13 18.2131 16.5003 18.9584 16.5003C19.27 16.5003 19.4112 16.1456 19.4818 15.8046L19.5166 15.6047L19.5505 15.3142C19.6633 14.2637 19.4891 12.7796 19.1005 11.2231C18.7466 9.80591 18.2333 8.40708 17.6686 7.32358L17.3395 6.71858L17.1947 6.46833C16.9353 6.03658 16.5915 5.57183 16.2084 5.50033ZM8.4167 7.33366C9.02449 7.33366 9.60738 7.5751 10.0372 8.00487C10.4669 8.43464 10.7084 9.01754 10.7084 9.62533C10.7084 10.2331 10.4669 10.816 10.0372 11.2458C9.60738 11.6755 9.02449 11.917 8.4167 11.917C7.80891 11.917 7.22602 11.6755 6.79625 11.2458C6.36648 10.816 6.12503 10.2331 6.12503 9.62533C6.12503 9.01754 6.36648 8.43464 6.79625 8.00487C7.22602 7.5751 7.80891 7.33366 8.4167 7.33366ZM14.8334 7.33366C15.0579 7.33369 15.2746 7.41612 15.4424 7.56531C15.6102 7.71451 15.7173 7.9201 15.7436 8.14308L15.75 8.25033V8.70866H16.2084C16.442 8.70892 16.6667 8.79838 16.8366 8.95877C17.0065 9.11916 17.1087 9.33837 17.1224 9.5716C17.1361 9.80484 17.0602 10.0345 16.9103 10.2137C16.7603 10.3928 16.5476 10.508 16.3156 10.5356L16.2084 10.542H15.75V11.0003C15.7498 11.234 15.6603 11.4587 15.4999 11.6286C15.3395 11.7985 15.1203 11.9007 14.8871 11.9144C14.6538 11.9281 14.4242 11.8522 14.245 11.7023C14.0659 11.5523 13.9507 11.3396 13.9231 11.1076L13.9167 11.0003V10.542H13.4584C13.2247 10.5417 13 10.4523 12.8301 10.2919C12.6602 10.1315 12.558 9.91229 12.5443 9.67905C12.5306 9.44581 12.6065 9.21614 12.7564 9.03698C12.9064 8.85781 13.1191 8.74267 13.3511 8.71508L13.4584 8.70866H13.9167V8.25033C13.9167 8.00721 14.0133 7.77405 14.1852 7.60214C14.3571 7.43024 14.5903 7.33366 14.8334 7.33366ZM8.4167 9.16699C8.29514 9.16699 8.17856 9.21528 8.09261 9.30123C8.00665 9.38719 7.95837 9.50377 7.95837 9.62533C7.95837 9.74688 8.00665 9.86346 8.09261 9.94942C8.17856 10.0354 8.29514 10.0837 8.4167 10.0837C8.53826 10.0837 8.65484 10.0354 8.74079 9.94942C8.82674 9.86346 8.87503 9.74688 8.87503 9.62533C8.87503 9.50377 8.82674 9.38719 8.74079 9.30123C8.65484 9.21528 8.53826 9.16699 8.4167 9.16699Z" fill="#9793BA"/>
</g>
<defs>
<clipPath id="clip0_606_4193">
<rect width="22" height="22" fill="white" transform="translate(0.625)"/>
</clipPath>
</defs>
</svg>
