<svg width="23" height="22" viewBox="0 0 23 22" fill="none" xmlns="http://www.w3.org/2000/svg">
<path d="M20.125 18.333C20.125 18.5761 20.0284 18.8093 19.8565 18.9812C19.6846 19.1531 19.4514 19.2497 19.2083 19.2497H4.54167C4.29855 19.2497 4.06539 19.1531 3.89349 18.9812C3.72158 18.8093 3.625 18.5761 3.625 18.333V8.69795C3.6249 8.55826 3.65673 8.4204 3.71806 8.29489C3.77938 8.16939 3.86858 8.05955 3.97883 7.97378L11.3122 2.27028C11.4731 2.14511 11.6711 2.07715 11.875 2.07715C12.0789 2.07715 12.2769 2.14511 12.4378 2.27028L19.7712 7.97378C19.8814 8.05955 19.9706 8.16939 20.0319 8.29489C20.0933 8.4204 20.1251 8.55826 20.125 8.69795V18.333Z" fill="#BD4BA3"/>
</svg>
