<svg width="23" height="22" viewBox="0 0 23 22" fill="none" xmlns="http://www.w3.org/2000/svg">
<path opacity="0.16" d="M17.7917 10.0833C17.7917 12.0283 17.0191 13.8935 15.6438 15.2688C14.2685 16.6441 12.4033 17.4167 10.4583 17.4167C8.51341 17.4167 6.64815 16.6441 5.27288 15.2688C3.89762 13.8935 3.125 12.0283 3.125 10.0833C3.125 8.13841 3.89762 6.27315 5.27288 4.89788C6.64815 3.52262 8.51341 2.75 10.4583 2.75C12.4033 2.75 14.2685 3.52262 15.6438 4.89788C17.0191 6.27315 17.7917 8.13841 17.7917 10.0833Z" fill="#9793BA"/>
<path d="M19.6252 19.2502L15.6441 15.2691M15.6441 15.2691C16.3251 14.5881 16.8653 13.7797 17.2338 12.8899C17.6024 12.0002 17.792 11.0466 17.792 10.0835C17.792 9.12047 17.6024 8.16685 17.2338 7.2771C16.8653 6.38736 16.3251 5.57892 15.6441 4.89794C14.9631 4.21696 14.1547 3.67678 13.2649 3.30823C12.3752 2.93969 11.4216 2.75 10.4585 2.75C9.49547 2.75 8.54185 2.93969 7.6521 3.30823C6.76236 3.67678 5.95392 4.21696 5.27294 4.89794C3.89764 6.27324 3.125 8.13855 3.125 10.0835C3.125 12.0285 3.89764 13.8938 5.27294 15.2691C6.64824 16.6444 8.51355 17.417 10.4585 17.417C12.4035 17.417 14.2688 16.6444 15.6441 15.2691Z" stroke="#9793BA" stroke-width="2" stroke-linecap="round" stroke-linejoin="round"/>
</svg>
