<svg width="24" height="24" viewBox="0 0 24 24" fill="none" xmlns="http://www.w3.org/2000/svg">
<path d="M10.7659 9.18017L11.1195 9.53373L18.5412 16.9554C18.7295 17.1358 18.9808 17.2356 19.2417 17.2333C19.5039 17.231 19.7547 17.1259 19.9401 16.9405C20.1255 16.755 20.2307 16.5042 20.233 16.242C20.2352 15.9812 20.1355 15.7298 19.955 15.5415L11.4729 7.05939C11.4729 7.05937 11.4729 7.05935 11.4729 7.05933C11.2854 6.8719 11.0311 6.7666 10.7659 6.7666C10.5008 6.7666 10.2465 6.8719 10.059 7.05933L10.7659 9.18017ZM10.7659 9.18017L10.4124 9.53373L2.98744 16.9587C2.98742 16.9587 2.98741 16.9587 2.98739 16.9587C2.79987 17.1462 2.54558 17.2515 2.28044 17.2515C2.01533 17.2515 1.76107 17.1462 1.57355 16.9588C1.38608 16.7713 1.28076 16.5169 1.28076 16.2518C1.28076 15.9866 1.38606 15.7324 1.57349 15.5448C1.57351 15.5448 1.57353 15.5448 1.57355 15.5448L10.0589 7.05939L10.7659 9.18017Z" fill="#F7D46C" stroke="#4549B0"/>
</svg>
