<svg width="24" height="24" viewBox="0 0 24 24" fill="none" xmlns="http://www.w3.org/2000/svg">
<path d="M10.7659 14.8379L11.1195 14.4843L18.5412 7.06268C18.7295 6.88226 18.9808 6.78249 19.2417 6.78475C19.5039 6.78703 19.7547 6.8922 19.9401 7.07761C20.1255 7.26302 20.2307 7.51383 20.233 7.77603C20.2352 8.03691 20.1355 8.2883 19.955 8.47659L11.4729 16.9587C11.4729 16.9587 11.4729 16.9587 11.4729 16.9587C11.2854 17.1462 11.0311 17.2515 10.7659 17.2515C10.5008 17.2515 10.2465 17.1462 10.059 16.9587L10.7659 14.8379ZM10.7659 14.8379L10.4124 14.4843L2.98744 7.05939C2.98742 7.05937 2.98741 7.05936 2.98739 7.05934C2.79987 6.8719 2.54558 6.7666 2.28044 6.7666C2.01533 6.7666 1.76107 6.87188 1.57355 7.05929C1.38608 7.24681 1.28076 7.50112 1.28076 7.76628C1.28076 8.03142 1.38606 8.28571 1.57349 8.47323C1.57351 8.47325 1.57353 8.47327 1.57355 8.47328L10.0589 16.9587L10.7659 14.8379Z" fill="#F7D46C" stroke="#4549B0"/>
</svg>
