<svg width="14" height="14" viewBox="0 0 14 14" fill="none" xmlns="http://www.w3.org/2000/svg">
<g clip-path="url(#clip0_796_3193)">
<path d="M1.16663 7.11908C1.16663 5.78383 1.16663 5.1165 1.46996 4.5635C1.77213 4.00991 2.32571 3.66691 3.43229 2.97975L4.59896 2.25583C5.76854 1.52958 6.35363 1.16675 6.99996 1.16675C7.64629 1.16675 8.23079 1.52958 9.40096 2.25583L10.5676 2.97975C11.6742 3.66691 12.2278 4.00991 12.5305 4.5635C12.8333 5.1165 12.8333 5.78383 12.8333 7.1185V8.00633C12.8333 10.2813 12.8333 11.4194 12.1496 12.1264C11.4665 12.8334 10.3664 12.8334 8.16663 12.8334H5.83329C3.63354 12.8334 2.53338 12.8334 1.85029 12.1264C1.16663 11.4194 1.16663 10.2819 1.16663 8.00633V7.11908Z" stroke="#4549B0" stroke-width="2"/>
<path d="M1.16663 7.11908C1.16663 5.78383 1.16663 5.1165 1.46996 4.5635C1.77213 4.00991 2.32571 3.66691 3.43229 2.97975L4.59896 2.25583C5.76854 1.52958 6.35363 1.16675 6.99996 1.16675C7.64629 1.16675 8.23079 1.52958 9.40096 2.25583L10.5676 2.97975C11.6742 3.66691 12.2278 4.00991 12.5305 4.5635C12.8333 5.1165 12.8333 5.78383 12.8333 7.1185V8.00633C12.8333 10.2813 12.8333 11.4194 12.1496 12.1264C11.4665 12.8334 10.3664 12.8334 8.16663 12.8334H5.83329C3.63354 12.8334 2.53338 12.8334 1.85029 12.1264C1.16663 11.4194 1.16663 10.2819 1.16663 8.00633V7.11908Z" stroke="#F7D46C" stroke-width="1.5"/>
<path d="M7 8.75V10.5" stroke="#4549B0" stroke-width="2" stroke-linecap="round"/>
<path d="M7 8.75V10.5" stroke="#F7D46C" stroke-width="1.5" stroke-linecap="round"/>
</g>
<defs>
<clipPath id="clip0_796_3193">
<rect width="14" height="14" fill="white"/>
</clipPath>
</defs>
</svg>
