<svg width="33" height="32" viewBox="0 0 33 32" fill="none" xmlns="http://www.w3.org/2000/svg">
<path fill-rule="evenodd" clip-rule="evenodd" d="M16.6668 5.33317C12.9849 5.33317 10.0002 8.31794 10.0002 11.9998C10.0002 15.717 12.1491 21.1562 16.6668 26.0736C21.1846 21.1562 23.3335 15.717 23.3335 11.9998C23.3335 8.31794 20.3487 5.33317 16.6668 5.33317ZM7.3335 11.9998C7.3335 6.84518 11.5122 2.6665 16.6668 2.6665C21.8215 2.6665 26.0002 6.84518 26.0002 11.9998C26.0002 16.8694 23.1142 23.438 17.6096 28.9426C17.0889 29.4633 16.2447 29.4633 15.724 28.9426C10.2194 23.438 7.3335 16.8694 7.3335 11.9998Z" fill="#A0ABBB"/>
<path fill-rule="evenodd" clip-rule="evenodd" d="M16.6668 13.3332C17.4032 13.3332 18.0002 12.7362 18.0002 11.9998C18.0002 11.2635 17.4032 10.6665 16.6668 10.6665C15.9305 10.6665 15.3335 11.2635 15.3335 11.9998C15.3335 12.7362 15.9305 13.3332 16.6668 13.3332ZM16.6668 15.9998C18.876 15.9998 20.6668 14.209 20.6668 11.9998C20.6668 9.7907 18.876 7.99984 16.6668 7.99984C14.4577 7.99984 12.6668 9.7907 12.6668 11.9998C12.6668 14.209 14.4577 15.9998 16.6668 15.9998Z" fill="#A0ABBB"/>
</svg>
