<svg width="370" height="225" viewBox="0 0 370 225" fill="none" xmlns="http://www.w3.org/2000/svg">
<g filter="url(#filter0_d_803_1550)">
<path d="M80 138.445L88.524 118.223L95.4982 113.556L110.221 122.111C110.543 123.915 111.506 125.539 112.931 126.684C114.357 127.828 116.147 128.414 117.97 128.334C122.007 128.303 125.707 124.883 126.494 121.334C125.505 121.936 124.469 122.457 123.395 122.889C123.078 123.525 122.465 123.808 121.845 124.445C118.542 127.83 113.533 124.715 112.546 122.889C113.083 123.091 119.52 118.223 119.52 118.223C120.243 118.816 121.022 119.337 121.845 119.778C121.861 117.271 119.154 116.087 116.421 115.111C116.821 115.022 123.395 110.445 123.395 110.445C123.395 110.445 129.571 110.289 129.594 113.556C129.682 115.11 129.682 116.668 129.594 118.223L135.018 113.556C135.297 113.556 135.523 113.58 135.793 113.556L141.993 108.889C142.744 108.889 142.845 109.326 142.768 109.667C143.937 108.343 144.738 106.734 145.092 105C143.814 105.964 142.186 107.06 140.443 108.111C139.74 108.845 138.898 109.429 137.966 109.83C137.034 110.231 136.032 110.44 135.018 110.445C133.174 110.445 131.673 110.169 130.369 108.889C128.971 107.411 128.146 105.48 128.044 103.445C128.089 102.354 128.394 101.291 128.933 100.344C129.472 99.3961 130.231 98.5925 131.144 98.0003C132.488 96.2509 134.05 94.6824 135.793 93.3337C135.535 93.3142 135.283 93.3337 135.018 93.3337C132.348 93.3363 129.786 94.4025 127.898 96.2981C126.009 98.1937 124.947 100.764 124.945 103.445L125.72 108.111L118.745 112.778C118.472 112.754 118.236 112.778 117.97 112.778C116.632 112.666 115.289 112.935 114.096 113.556L104.022 108.889L106.347 106.556L94.7232 101.111L106.347 79.3337L113.321 74.667L130.369 81.667L244.28 84.0003H290L273.727 89.4448L255.904 91.0003L274.502 94.1114L284.576 132.223L277.601 136.889L228.007 137.667L234.207 133.778H226.458L80 138.445ZM114.096 123.667C114.429 123.798 118.215 125.34 120.295 122.889C117.652 123.376 115.563 123.966 114.096 123.667C114.211 123.724 113.977 123.62 114.096 123.667Z" fill="url(#paint0_linear_803_1550)"/>
</g>
<g filter="url(#filter1_d_803_1550)">
<path d="M80 138.445L88.524 118.223L95.4982 113.556L110.221 122.111C110.543 123.915 111.506 125.539 112.931 126.684C114.357 127.828 116.147 128.414 117.97 128.334C122.007 128.303 125.707 124.883 126.494 121.334C125.505 121.936 124.469 122.457 123.395 122.889C123.078 123.525 122.465 123.808 121.845 124.445C118.542 127.83 113.533 124.715 112.546 122.889C113.083 123.091 119.52 118.223 119.52 118.223C120.243 118.816 121.022 119.337 121.845 119.778C121.861 117.271 119.154 116.087 116.421 115.111C116.821 115.022 123.395 110.445 123.395 110.445C123.395 110.445 129.571 110.289 129.594 113.556C129.682 115.11 129.682 116.668 129.594 118.223L135.018 113.556C135.297 113.556 135.523 113.58 135.793 113.556L141.993 108.889C142.744 108.889 142.845 109.326 142.768 109.667C143.937 108.343 144.738 106.734 145.092 105C143.814 105.964 142.186 107.06 140.443 108.111C139.74 108.845 138.898 109.429 137.966 109.83C137.034 110.231 136.032 110.44 135.018 110.445C133.174 110.445 131.673 110.169 130.369 108.889C128.971 107.411 128.146 105.48 128.044 103.445C128.089 102.354 128.394 101.291 128.933 100.344C129.472 99.3961 130.231 98.5925 131.144 98.0003C132.488 96.2509 134.05 94.6824 135.793 93.3337C135.535 93.3142 135.283 93.3337 135.018 93.3337C132.348 93.3363 129.786 94.4025 127.898 96.2981C126.009 98.1937 124.947 100.764 124.945 103.445L125.72 108.111L118.745 112.778C118.472 112.754 118.236 112.778 117.97 112.778C116.632 112.666 118.388 116.824 117.196 117.445L104.022 108.889L106.347 106.556L94.7232 101.111L106.347 79.3337L113.321 74.667L130.369 81.667L244.28 84.0003H290L273.727 89.4448L255.904 91.0003L274.502 94.1114L284.576 132.223L277.601 136.889L228.007 137.667L234.207 133.778H226.458L80 138.445ZM114.096 123.667C114.429 123.798 118.215 125.34 120.295 122.889C117.652 123.376 115.563 123.966 114.096 123.667C114.211 123.724 113.977 123.62 114.096 123.667Z" fill="url(#paint1_linear_803_1550)"/>
</g>
<path d="M84.3027 133.778L96.2734 113.556L117.196 117.445L110.997 104.223H117.971L101.698 96.4448L113.321 74.667L191.587 81.667L280.701 80.1114L290 84.0003L262.879 86.3337L281.476 89.4448L284.576 132.223L234.982 133L256.679 128.334L230.76 129.111L84.3027 133.778Z" fill="url(#paint2_linear_803_1550)"/>
<path d="M135.793 71.5556L95.498 64.5556L101.697 58.3333L108.671 56L142.767 69.2222L135.793 71.5556Z" fill="url(#paint3_linear_803_1550)"/>
<path d="M142.768 69.2222L102.473 62.2222L108.672 56L142.768 69.2222Z" fill="url(#paint4_linear_803_1550)"/>
<path d="M220.258 139.223L184.612 144.667L179.963 148.556L231.882 144.667L236.531 140.778L220.258 139.223Z" fill="url(#paint5_linear_803_1550)"/>
<path d="M220.258 138.444L184.612 144.667L236.531 140.778L220.258 138.444Z" fill="url(#paint6_linear_803_1550)"/>
<path d="M81.5498 146.222L85.4243 154L97.8229 146.222L101.697 141.556H85.4243L81.5498 146.222Z" fill="url(#paint7_linear_803_1550)"/>
<path d="M85.4248 141.556L89.2993 149.333L101.698 141.556H85.4248Z" fill="url(#paint8_linear_803_1550)"/>
<defs>
<filter id="filter0_d_803_1550" x="0" y="0.666992" width="370" height="223.777" filterUnits="userSpaceOnUse" color-interpolation-filters="sRGB">
<feFlood flood-opacity="0" result="BackgroundImageFix"/>
<feColorMatrix in="SourceAlpha" type="matrix" values="0 0 0 0 0 0 0 0 0 0 0 0 0 0 0 0 0 0 127 0" result="hardAlpha"/>
<feOffset dy="6"/>
<feGaussianBlur stdDeviation="40"/>
<feColorMatrix type="matrix" values="0 0 0 0 0.522042 0 0 0 0 0.194792 0 0 0 0 0.779167 0 0 0 0.478 0"/>
<feBlend mode="normal" in2="BackgroundImageFix" result="effect1_dropShadow_803_1550"/>
<feBlend mode="normal" in="SourceGraphic" in2="effect1_dropShadow_803_1550" result="shape"/>
</filter>
<filter id="filter1_d_803_1550" x="56" y="53.667" width="258" height="111.777" filterUnits="userSpaceOnUse" color-interpolation-filters="sRGB">
<feFlood flood-opacity="0" result="BackgroundImageFix"/>
<feColorMatrix in="SourceAlpha" type="matrix" values="0 0 0 0 0 0 0 0 0 0 0 0 0 0 0 0 0 0 127 0" result="hardAlpha"/>
<feOffset dy="3"/>
<feGaussianBlur stdDeviation="12"/>
<feColorMatrix type="matrix" values="0 0 0 0 0.362745 0 0 0 0 0 0 0 0 0 0.490196 0 0 0 0.969 0"/>
<feBlend mode="normal" in2="BackgroundImageFix" result="effect1_dropShadow_803_1550"/>
<feBlend mode="normal" in="SourceGraphic" in2="effect1_dropShadow_803_1550" result="shape"/>
</filter>
<linearGradient id="paint0_linear_803_1550" x1="286.01" y1="80.4708" x2="252.057" y2="190.969" gradientUnits="userSpaceOnUse">
<stop stop-color="#8754F4"/>
<stop offset="0.523" stop-color="#A686ED"/>
<stop offset="1" stop-color="#814BF4"/>
</linearGradient>
<linearGradient id="paint1_linear_803_1550" x1="286.01" y1="80.4708" x2="252.057" y2="190.969" gradientUnits="userSpaceOnUse">
<stop stop-color="#A10BB9"/>
<stop offset="0.523" stop-color="#8700B7"/>
<stop offset="1" stop-color="#55006A"/>
</linearGradient>
<linearGradient id="paint2_linear_803_1550" x1="286.549" y1="83.2972" x2="266.305" y2="164.06" gradientUnits="userSpaceOnUse">
<stop stop-color="#824CF6"/>
<stop offset="0.54" stop-color="#A887ED"/>
<stop offset="1" stop-color="#814BF4"/>
</linearGradient>
<linearGradient id="paint3_linear_803_1550" x1="140.451" y1="63.7778" x2="102.456" y2="79.6128" gradientUnits="userSpaceOnUse">
<stop stop-color="#6500A3"/>
<stop offset="0.54" stop-color="#8D0FC9"/>
<stop offset="1" stop-color="#43006C"/>
</linearGradient>
<linearGradient id="paint4_linear_803_1550" x1="142.083" y1="57.9304" x2="137.06" y2="75.7119" gradientUnits="userSpaceOnUse">
<stop stop-color="#5200FF"/>
<stop offset="0.54" stop-color="#B557FF"/>
<stop offset="1" stop-color="#8E00FE"/>
</linearGradient>
<linearGradient id="paint5_linear_803_1550" x1="235.569" y1="140.585" x2="232.49" y2="157.594" gradientUnits="userSpaceOnUse">
<stop stop-color="#8A07B8"/>
<stop offset="0.54" stop-color="#6803B8"/>
<stop offset="1" stop-color="#7C00B6"/>
</linearGradient>
<linearGradient id="paint6_linear_803_1550" x1="235.649" y1="139.353" x2="234.726" y2="148.293" gradientUnits="userSpaceOnUse">
<stop stop-color="#BD00FF"/>
<stop offset="0.54" stop-color="#AD00FE"/>
<stop offset="1" stop-color="#AD00FE"/>
</linearGradient>
<linearGradient id="paint7_linear_803_1550" x1="86.0024" y1="154" x2="93.8151" y2="137.763" gradientUnits="userSpaceOnUse">
<stop stop-color="#48006A"/>
<stop offset="0.446" stop-color="#4F0074"/>
<stop offset="1" stop-color="#9A00E2"/>
</linearGradient>
<linearGradient id="paint8_linear_803_1550" x1="101.421" y1="142.691" x2="97.4468" y2="152.35" gradientUnits="userSpaceOnUse">
<stop stop-color="#7F3CED"/>
<stop offset="0.54" stop-color="#A982FD"/>
<stop offset="1" stop-color="#4311D1"/>
</linearGradient>
</defs>
</svg>
