<svg width="197" height="184" viewBox="0 0 197 184" fill="none" xmlns="http://www.w3.org/2000/svg">
<g filter="url(#filter0_dd_537_3497)">
<path d="M122.247 75.1369L119.506 72.3955L104.885 76.0507L84.7816 75.1369L82.954 83.361L75.6436 84.2748L78.385 87.4731L82.4971 89.7576L85.2384 90.6714L82.954 92.9559L80.2126 103.464L82.954 106.206L112.195 105.749V102.551L117.221 106.206H122.247V75.1369Z" fill="url(#paint0_linear_537_3497)"/>
<path d="M119.506 72.3955L102.144 73.3093L82.0403 72.3955L80.2128 81.0765L75.6438 84.2748L82.4972 87.93L80.2128 90.2145V103.464L109.911 103.008V99.8093L114.48 103.464H119.506V72.3955Z" fill="url(#paint1_linear_537_3497)"/>
<path fill-rule="evenodd" clip-rule="evenodd" d="M102.144 73.3093L119.506 72.3955V103.464H118.135V73.7662L100.773 74.68L81.7415 73.8149L82.0403 72.3955L102.144 73.3093ZM82.1984 88.2288L82.4972 88.3869L82.9541 89.3007L80.6697 91.1283L80.2128 94.555V90.2145L82.1984 88.2288ZM108.54 103.029V99.8093H109.454L109.911 100.317V103.008L108.54 103.029Z" fill="url(#paint2_linear_537_3497)"/>
</g>
<path d="M115.85 105.749L112.652 103.922V112.146L114.936 113.974L123.16 112.603L115.85 105.749Z" fill="url(#paint3_linear_537_3497)"/>
<path d="M112.652 103.922V112.146L119.962 111.232L112.652 103.922Z" fill="url(#paint4_linear_537_3497)"/>
<path fill-rule="evenodd" clip-rule="evenodd" d="M112.652 105.293V103.922L119.962 111.232L118.744 111.385L112.652 105.293Z" fill="url(#paint5_linear_537_3497)"/>
<path d="M103.692 68.0994L100.708 69.3369L101.718 71.4361L113.565 69.8111L112.555 67.7119L103.692 68.0994Z" fill="url(#paint6_linear_537_3497)"/>
<path d="M102.681 66L100.707 69.3367L112.555 67.7118L102.681 66Z" fill="url(#paint7_linear_537_3497)"/>
<path fill-rule="evenodd" clip-rule="evenodd" d="M102.25 66.7287L102.681 66L112.555 67.7118L109.967 68.0667L102.25 66.7287Z" fill="url(#paint8_linear_537_3497)"/>
<path d="M108.643 90.1158C108.603 89.0277 107.735 86.4632 106.643 86.5002C106.16 86.5169 105.653 88.4299 105.304 88.7624C103.765 87.7145 101.958 87.1402 100.101 87.0999L100.977 82.885L103.87 83.4929C103.95 84.2351 104.615 84.7725 105.358 84.6919C106.1 84.6113 106.638 83.9463 106.557 83.2041C106.476 82.4618 106.386 81.4196 105.643 81.5002C105.217 81.5438 104.081 80.8221 103.87 81.1915L100.643 80.5002C100.418 80.4498 100.285 82.0958 100.235 82.3241C100.235 82.3275 100.235 82.3275 100.235 82.3309L99.2373 87.0193C97.3562 87.0495 95.5254 87.6272 93.9668 88.6818C93.174 87.9362 92.3888 86.704 91.6431 87.5C90.8973 88.2926 90.4699 90.8111 91.266 91.5566C91.4206 91.7011 91.5986 91.8253 91.7968 91.9126C91.7833 92.1108 91.7833 92.3089 91.7968 92.5071C91.7968 95.5331 95.3239 97.9949 99.674 97.9949C104.024 97.9949 107.551 95.5365 107.551 92.5071C107.565 92.3089 107.565 92.1108 107.551 91.9126C108.23 91.5734 108.656 90.8749 108.643 90.1158ZM95.1291 91.4693C95.1291 90.7237 95.7371 91.13 96.4828 91.13C97.2285 91.13 97.8365 90.7237 97.8365 91.4693C97.8365 92.2149 97.2285 92.3259 96.4828 92.3259C95.7337 92.3192 95.1291 92.2149 95.1291 91.4693ZM102.979 95.1838C102.019 95.9059 100.877 95.2342 99.674 95.1838C98.4714 95.2342 97.2621 95.9059 96.3014 95.1838C96.1738 95.0293 96.1973 94.7976 96.3518 94.67C96.4862 94.5591 96.6776 94.5591 96.8154 94.67C97.6283 95.2644 98.6192 95.5667 99.627 95.5197C100.635 95.5734 101.629 95.2846 102.452 94.6968C102.6 94.5524 102.842 94.5558 102.986 94.7036C103.131 94.8513 103.127 95.0931 102.979 95.2376V95.1838ZM102.653 92.4496C101.907 92.4496 101.384 92.2619 101.384 91.5163C101.384 90.7708 101.982 91.4693 102.727 91.4693C103.473 91.4693 104.091 90.7708 104.091 91.5163C104.122 92.2619 103.456 92.4698 102.71 92.5C102.687 92.5 102.667 92.5 102.643 92.5L102.653 92.4496Z" fill="#94262C"/>
<path d="M108.643 88.121C108.603 87.0328 107.689 86.1831 106.598 86.2201C106.114 86.2368 105.654 86.435 105.304 86.7675C103.766 85.7196 101.959 85.1453 100.101 85.105L100.978 80.8901L103.87 81.498C103.951 82.2402 104.616 82.7776 105.358 82.697C106.1 82.6164 106.638 81.9514 106.557 81.2092C106.477 80.4669 105.811 79.9296 105.069 80.0102C104.642 80.0539 104.26 80.3024 104.048 80.6718L100.736 80.0102C100.511 79.9598 100.286 80.1009 100.235 80.3293C100.235 80.3326 100.235 80.3326 100.235 80.336L99.2376 85.0244C97.3565 85.0547 95.5258 85.6323 93.9671 86.6869C93.1744 85.9413 91.9248 85.9782 91.179 86.7742C90.4333 87.5668 90.4702 88.8162 91.2664 89.5618C91.4209 89.7062 91.5989 89.8304 91.7971 89.9178C91.7837 90.1159 91.7837 90.3141 91.7971 90.5122C91.7971 93.5382 95.3242 96 99.6743 96C104.024 96 107.552 93.5416 107.552 90.5122C107.565 90.3141 107.565 90.1159 107.552 89.9178C108.23 89.5786 108.657 88.88 108.643 88.121ZM95.1294 89.4744C95.1294 88.7289 95.7374 88.121 96.4831 88.121C97.2288 88.121 97.8369 88.7289 97.8369 89.4744C97.8369 90.22 97.2288 90.8279 96.4831 90.8279C95.734 90.8212 95.1294 90.22 95.1294 89.4744ZM102.98 93.1889C102.019 93.911 100.843 94.2804 99.6407 94.2301C98.4381 94.2804 97.2624 93.911 96.3017 93.1889C96.1741 93.0344 96.1976 92.8027 96.3521 92.6751C96.4865 92.5643 96.6779 92.5643 96.8157 92.6751C97.6286 93.2695 98.6195 93.5718 99.6273 93.5248C100.635 93.5785 101.629 93.2897 102.452 92.702C102.6 92.5575 102.842 92.5609 102.986 92.7087C103.131 92.8564 103.128 93.0983 102.98 93.2427V93.1889ZM102.738 90.8749C101.992 90.8749 101.384 90.267 101.384 89.5215C101.384 88.7759 101.992 88.168 102.738 88.168C103.484 88.168 104.092 88.7759 104.092 89.5215C104.122 90.267 103.541 90.8951 102.795 90.9253C102.771 90.9253 102.751 90.9253 102.728 90.9253L102.738 90.8749Z" fill="white"/>
<defs>
<filter id="filter0_dd_537_3497" x="0.889557" y="0.44479" width="196.112" height="183.319" filterUnits="userSpaceOnUse" color-interpolation-filters="sRGB">
<feFlood flood-opacity="0" result="BackgroundImageFix"/>
<feColorMatrix in="SourceAlpha" type="matrix" values="0 0 0 0 0 0 0 0 0 0 0 0 0 0 0 0 0 0 127 0" result="hardAlpha"/>
<feOffset dy="2.80328"/>
<feGaussianBlur stdDeviation="37.377"/>
<feColorMatrix type="matrix" values="0 0 0 0 0.708333 0 0 0 0 0.17 0 0 0 0 0 0 0 0 0.8 0"/>
<feBlend mode="normal" in2="BackgroundImageFix" result="effect1_dropShadow_537_3497"/>
<feColorMatrix in="SourceAlpha" type="matrix" values="0 0 0 0 0 0 0 0 0 0 0 0 0 0 0 0 0 0 127 0" result="hardAlpha"/>
<feOffset dy="2.80328"/>
<feGaussianBlur stdDeviation="11.2131"/>
<feColorMatrix type="matrix" values="0 0 0 0 0.65 0 0 0 0 0.242667 0 0 0 0 0.0135417 0 0 0 0.8 0"/>
<feBlend mode="normal" in2="effect1_dropShadow_537_3497" result="effect2_dropShadow_537_3497"/>
<feBlend mode="normal" in="SourceGraphic" in2="effect2_dropShadow_537_3497" result="shape"/>
</filter>
<linearGradient id="paint0_linear_537_3497" x1="84.1949" y1="106.42" x2="122.278" y2="74.5726" gradientUnits="userSpaceOnUse">
<stop stop-color="#861118"/>
<stop offset="1" stop-color="#AF4D53"/>
</linearGradient>
<linearGradient id="paint1_linear_537_3497" x1="82.4972" y1="95.2403" x2="114.937" y2="90.6714" gradientUnits="userSpaceOnUse">
<stop stop-color="#EE101D"/>
<stop offset="1" stop-color="#FF7711"/>
</linearGradient>
<linearGradient id="paint2_linear_537_3497" x1="102.671" y1="74.4531" x2="102.671" y2="102.024" gradientUnits="userSpaceOnUse">
<stop stop-color="#DBAB87"/>
<stop offset="1" stop-color="#C1926E"/>
</linearGradient>
<linearGradient id="paint3_linear_537_3497" x1="112.652" y1="107.901" x2="119.556" y2="115.118" gradientUnits="userSpaceOnUse">
<stop stop-color="#9D3339"/>
<stop offset="1" stop-color="#902026"/>
</linearGradient>
<linearGradient id="paint4_linear_537_3497" x1="108.071" y1="104.276" x2="108.071" y2="113.765" gradientUnits="userSpaceOnUse">
<stop stop-color="#EE131C"/>
<stop offset="1" stop-color="#FF7711"/>
</linearGradient>
<linearGradient id="paint5_linear_537_3497" x1="116.839" y1="104.492" x2="116.839" y2="112.138" gradientUnits="userSpaceOnUse">
<stop stop-color="#DAAA86"/>
<stop offset="1" stop-color="#DBAB87"/>
</linearGradient>
<linearGradient id="paint6_linear_537_3497" x1="101.616" y1="72.8773" x2="106.643" y2="64.2844" gradientUnits="userSpaceOnUse">
<stop stop-color="#861218"/>
<stop offset="1" stop-color="#AE4B51"/>
</linearGradient>
<linearGradient id="paint7_linear_537_3497" x1="92.8608" y1="68.7028" x2="94.0401" y2="73.2984" gradientUnits="userSpaceOnUse">
<stop stop-color="#EE101D"/>
<stop offset="1" stop-color="#FF7711"/>
</linearGradient>
<linearGradient id="paint8_linear_537_3497" x1="106.683" y1="65.3023" x2="107.745" y2="69.4398" gradientUnits="userSpaceOnUse">
<stop stop-color="#DBAB87"/>
<stop offset="1" stop-color="#C1926E"/>
</linearGradient>
</defs>
</svg>
